<svg width="34" height="32" viewBox="0 0 34 32" fill="none" xmlns="http://www.w3.org/2000/svg">
<path d="M16.8537 22.8436C17.0428 22.7313 17.2781 22.7315 17.467 22.8441L23.0834 26.1908L23.0835 26.1909C23.6757 26.544 24.3524 26.0137 24.2088 25.4043L16.8537 22.8436ZM16.8537 22.8436L11.2373 26.1769L11.2363 26.1775C10.6441 26.5307 9.96739 26.0004 10.111 25.391C10.111 25.3909 10.111 25.3909 10.111 25.3909C10.111 25.3908 10.1111 25.3908 10.1111 25.3907L11.5997 19.0976C11.6514 18.8787 11.5764 18.6492 11.4053 18.5032L6.43861 14.2632L6.4384 14.263C5.94793 13.8447 6.19735 13.0369 6.86733 12.9844L6.86733 12.9844L6.87045 12.9841L13.4071 12.4374C13.6278 12.419 13.8204 12.2804 13.908 12.077L16.4658 6.14372L16.4668 6.14137C16.7197 5.5478 17.6001 5.5478 17.853 6.14137L17.8538 6.14327L20.4116 12.0899C20.4992 12.2936 20.6919 12.4323 20.9128 12.4508L27.4494 12.9974L27.4525 12.9977C28.1225 13.0502 28.3719 13.858 27.8814 14.2763L27.8812 14.2765L22.9145 18.5165C22.7434 18.6626 22.6684 18.8921 22.7202 19.111L24.2088 25.404L16.8537 22.8436Z" stroke="#FFBA79" stroke-width="1.2" stroke-linejoin="round"/>
</svg>
