<svg width="33" height="32" viewBox="0 0 33 32" fill="none" xmlns="http://www.w3.org/2000/svg">
<path d="M16.1799 5.74785C16.0591 5.83193 15.9595 5.95046 15.8948 6.10217L15.894 6.10413L13.3362 12.0375C13.2631 12.2069 13.1026 12.3224 12.9187 12.3378L6.38211 12.8845L6.3795 12.8847L6.3795 12.8847C5.6227 12.944 5.33365 13.8616 5.8935 14.3391L5.89367 14.3392L10.8604 18.5792C11.003 18.701 11.0655 18.8922 11.0223 19.0746L9.53373 25.3677L16.1799 5.74785ZM16.1799 5.74785V23.0748L10.8084 26.2629L10.8075 26.2634C10.1426 26.6599 9.36889 26.0669 9.53368 25.368L16.1799 5.74785Z" fill="#FFBA79" stroke="#FFBA79" stroke-linejoin="round"/>
<path d="M16.3737 22.8436C16.5628 22.7313 16.7981 22.7315 16.987 22.8441L22.6034 26.1908L22.6035 26.1909C23.1957 26.544 23.8724 26.0137 23.7288 25.4043L16.3737 22.8436ZM16.3737 22.8436L10.7573 26.1769L10.7563 26.1775C10.1641 26.5307 9.48738 26.0004 9.63099 25.391C9.631 25.3909 9.63101 25.3909 9.63102 25.3909C9.63103 25.3908 9.63104 25.3908 9.63106 25.3907L11.1197 19.0976C11.1714 18.8787 11.0964 18.6492 10.9253 18.5032L5.9586 14.2632L5.95839 14.263C5.46792 13.8447 5.71734 13.0369 6.38731 12.9844L6.38732 12.9844L6.39044 12.9841L12.927 12.4374C13.1477 12.419 13.3403 12.2804 13.428 12.077L15.9858 6.14372L15.9868 6.14137C16.2397 5.5478 17.1201 5.5478 17.373 6.14137L17.3738 6.14327L19.9316 12.0899C20.0192 12.2936 20.2119 12.4323 20.4328 12.4508L26.9694 12.9974L26.9725 12.9977C27.6425 13.0502 27.8919 13.858 27.4014 14.2763L27.4012 14.2765L22.4345 18.5165C22.2634 18.6626 22.1884 18.8921 22.2401 19.111L23.7288 25.404L16.3737 22.8436Z" stroke="#FFBA79" stroke-width="1.2" stroke-linejoin="round"/>
</svg>
